<?xml version="1.0" encoding="UTF-8" standalone="no"?>
<!DOCTYPE svg PUBLIC "-//W3C//DTD SVG 1.1//EN"
 "http://www.w3.org/Graphics/SVG/1.1/DTD/svg11.dtd">
<!-- Generated by graphviz version 2.43.0 (0)
 -->
<!-- Title: %3 Pages: 1 -->
<svg width="343pt" height="1038pt"
 viewBox="0.00 0.00 343.22 1038.01" xmlns="http://www.w3.org/2000/svg" xmlns:xlink="http://www.w3.org/1999/xlink">
<g id="graph0" class="graph" transform="scale(1 1) rotate(0) translate(4 1034.01)">
<title>%3</title>
<polygon fill="white" stroke="transparent" points="-4,4 -4,-1034.01 339.22,-1034.01 339.22,4 -4,4"/>
<!-- B -->
<g id="node1" class="node">
<title>B</title>
<polygon fill="aqua" stroke="black" points="169.67,-992.84 130.37,-992.84 118.22,-1030.22 106.08,-992.84 66.78,-992.84 98.57,-969.74 86.43,-932.36 118.22,-955.46 150.02,-932.36 137.87,-969.74 169.67,-992.84"/>
<text text-anchor="middle" x="118.22" y="-977.59" font-family="Times,serif" font-size="14.00">B</text>
</g>
<!-- A -->
<g id="node2" class="node">
<title>A</title>
<polygon fill="aqua" stroke="black" points="102.67,-60.27 63.37,-60.27 51.22,-97.65 39.08,-60.27 -0.22,-60.27 31.57,-37.16 19.43,0.22 51.22,-22.89 83.02,0.22 70.87,-37.16 102.67,-60.27"/>
<text text-anchor="middle" x="51.22" y="-45.01" font-family="Times,serif" font-size="14.00">A</text>
</g>
<!-- B&#45;&#45;A -->
<g id="edge1" class="edge">
<title>B&#45;&#45;A</title>
<path fill="none" stroke="blue" d="M95.22,-959.93C67.11,-932.67 23.22,-881.38 23.22,-826.86 23.22,-826.86 23.22,-826.86 23.22,-203.14 23.22,-157.25 35.5,-104.87 43.79,-74.71"/>
<text text-anchor="middle" x="29.72" y="-510" font-family="Times,serif" font-size="20.00">1</text>
</g>
<!-- C -->
<g id="node3" class="node">
<title>C</title>
<polygon fill="aqua" stroke="black" points="153.67,-215.7 114.37,-215.7 102.22,-253.07 90.08,-215.7 50.78,-215.7 82.57,-192.59 70.43,-155.21 102.22,-178.32 134.02,-155.21 121.87,-192.59 153.67,-215.7"/>
<text text-anchor="middle" x="102.22" y="-200.44" font-family="Times,serif" font-size="14.00">C</text>
</g>
<!-- B&#45;&#45;C -->
<g id="edge2" class="edge">
<title>B&#45;&#45;C</title>
<path fill="none" stroke="blue" d="M100.17,-942.45C87.29,-911.96 72.22,-867.6 72.22,-826.86 72.22,-826.86 72.22,-826.86 72.22,-358.57 72.22,-312.16 85.61,-259.3 94.5,-229.31"/>
<text text-anchor="middle" x="78.72" y="-587.72" font-family="Times,serif" font-size="20.00">2</text>
</g>
<!-- D -->
<g id="node4" class="node">
<title>D</title>
<polygon fill="aqua" stroke="black" points="281.67,-60.27 242.37,-60.27 230.22,-97.65 218.08,-60.27 178.78,-60.27 210.57,-37.16 198.43,0.22 230.22,-22.89 262.02,0.22 249.87,-37.16 281.67,-60.27"/>
<text text-anchor="middle" x="230.22" y="-45.01" font-family="Times,serif" font-size="14.00">D</text>
</g>
<!-- B&#45;&#45;D -->
<g id="edge3" class="edge">
<title>B&#45;&#45;D</title>
<path fill="none" stroke="blue" d="M144.06,-973.98C198.95,-958.85 322.22,-915.05 322.22,-826.86 322.22,-826.86 322.22,-826.86 322.22,-203.14 322.22,-141.96 267.74,-84.08 242.63,-60.66"/>
<text text-anchor="middle" x="328.72" y="-510" font-family="Times,serif" font-size="20.00">9</text>
</g>
<!-- G -->
<g id="node5" class="node">
<title>G</title>
<polygon fill="aqua" stroke="black" points="250.67,-681.98 211.37,-681.98 199.22,-719.36 187.08,-681.98 147.78,-681.98 179.57,-658.88 167.43,-621.5 199.22,-644.6 231.02,-621.5 218.87,-658.88 250.67,-681.98"/>
<text text-anchor="middle" x="199.22" y="-666.73" font-family="Times,serif" font-size="14.00">G</text>
</g>
<!-- B&#45;&#45;G -->
<g id="edge4" class="edge">
<title>B&#45;&#45;G</title>
<path fill="none" stroke="blue" d="M114.79,-952.82C110.84,-912.96 107.22,-837.28 127.22,-777.15 139.91,-739.01 170.65,-701.96 187.57,-683.52"/>
<text text-anchor="middle" x="133.72" y="-820.86" font-family="Times,serif" font-size="20.00">4</text>
</g>
<!-- H -->
<g id="node6" class="node">
<title>H</title>
<polygon fill="aqua" stroke="black" points="251.67,-837.41 212.37,-837.41 200.22,-874.79 188.08,-837.41 148.78,-837.41 180.57,-814.31 168.43,-776.93 200.22,-800.03 232.02,-776.93 219.87,-814.31 251.67,-837.41"/>
<text text-anchor="middle" x="200.22" y="-822.16" font-family="Times,serif" font-size="14.00">H</text>
</g>
<!-- B&#45;&#45;H -->
<g id="edge5" class="edge">
<title>B&#45;&#45;H</title>
<path fill="none" stroke="blue" d="M139.98,-939.58C156.4,-908.86 178.14,-868.19 190.51,-845.04"/>
<text text-anchor="middle" x="169.72" y="-898.58" font-family="Times,serif" font-size="20.00">2</text>
</g>
<!-- C&#45;&#45;A -->
<g id="edge13" class="edge">
<title>C&#45;&#45;A</title>
<path fill="none" stroke="blue" d="M91.28,-170.23C81.62,-141.17 67.77,-99.51 59.15,-73.56"/>
<text text-anchor="middle" x="85.72" y="-121.43" font-family="Times,serif" font-size="20.00">4</text>
</g>
<!-- C&#45;&#45;D -->
<g id="edge14" class="edge">
<title>C&#45;&#45;D</title>
<path fill="none" stroke="blue" d="M130.76,-157.69C140.21,-143.7 151.15,-128.54 162.22,-115.43 179.91,-94.48 203.46,-72.9 217.69,-60.42"/>
<text text-anchor="middle" x="168.72" y="-121.43" font-family="Times,serif" font-size="20.00">1</text>
</g>
<!-- G&#45;&#45;D -->
<g id="edge7" class="edge">
<title>G&#45;&#45;D</title>
<path fill="none" stroke="blue" d="M225.51,-638.49C247.81,-609 276.22,-562.35 276.22,-516 276.22,-516 276.22,-516 276.22,-203.14 276.22,-152.81 253.23,-96.95 239.75,-68.55"/>
<text text-anchor="middle" x="282.72" y="-354.57" font-family="Times,serif" font-size="20.00">1</text>
</g>
<!-- F -->
<g id="node7" class="node">
<title>F</title>
<polygon fill="aqua" stroke="black" points="248.67,-526.55 209.37,-526.55 197.22,-563.93 185.08,-526.55 145.78,-526.55 177.57,-503.45 165.43,-466.07 197.22,-489.17 229.02,-466.07 216.87,-503.45 248.67,-526.55"/>
<text text-anchor="middle" x="197.22" y="-511.3" font-family="Times,serif" font-size="14.00">F</text>
</g>
<!-- G&#45;&#45;F -->
<g id="edge8" class="edge">
<title>G&#45;&#45;F</title>
<path fill="none" stroke="blue" d="M198.9,-644.44C198.61,-622.19 198.17,-589.08 197.82,-562.05"/>
<text text-anchor="middle" x="204.72" y="-587.72" font-family="Times,serif" font-size="20.00">6</text>
</g>
<!-- H&#45;&#45;G -->
<g id="edge6" class="edge">
<title>H&#45;&#45;G</title>
<path fill="none" stroke="blue" d="M200.06,-799.87C199.92,-777.88 199.7,-745.27 199.53,-718.41"/>
<text text-anchor="middle" x="212.22" y="-743.15" font-family="Times,serif" font-size="20.00">14</text>
</g>
<!-- F&#45;&#45;D -->
<g id="edge9" class="edge">
<title>F&#45;&#45;D</title>
<path fill="none" stroke="blue" d="M201.57,-485.8C204.7,-464.55 208.78,-434.65 211.22,-408.29 221.68,-295.31 226.87,-161.74 229,-93.96"/>
<text text-anchor="middle" x="226.72" y="-276.86" font-family="Times,serif" font-size="20.00">3</text>
</g>
<!-- E -->
<g id="node8" class="node">
<title>E</title>
<polygon fill="aqua" stroke="black" points="202.67,-371.12 163.37,-371.12 151.22,-408.5 139.08,-371.12 99.78,-371.12 131.57,-348.02 119.43,-310.64 151.22,-333.75 183.02,-310.64 170.87,-348.02 202.67,-371.12"/>
<text text-anchor="middle" x="151.22" y="-355.87" font-family="Times,serif" font-size="14.00">E</text>
</g>
<!-- F&#45;&#45;E -->
<g id="edge10" class="edge">
<title>F&#45;&#45;E</title>
<path fill="none" stroke="blue" d="M187.69,-482.21C179.11,-453.6 166.67,-412.11 158.77,-385.74"/>
<text text-anchor="middle" x="182.72" y="-432.29" font-family="Times,serif" font-size="20.00">1</text>
</g>
<!-- E&#45;&#45;C -->
<g id="edge11" class="edge">
<title>E&#45;&#45;C</title>
<path fill="none" stroke="blue" d="M140.83,-326.04C131.62,-297.18 118.36,-255.68 110.03,-229.58"/>
<text text-anchor="middle" x="135.72" y="-276.86" font-family="Times,serif" font-size="20.00">3</text>
</g>
<!-- E&#45;&#45;D -->
<g id="edge12" class="edge">
<title>E&#45;&#45;D</title>
<path fill="none" stroke="blue" d="M159.01,-328.11C174.43,-267.85 208.6,-134.27 223.29,-76.83"/>
<text text-anchor="middle" x="208.72" y="-199.14" font-family="Times,serif" font-size="20.00">1</text>
</g>
</g>
</svg>
