<?xml version="1.0" encoding="UTF-8" standalone="no"?>
<!DOCTYPE svg PUBLIC "-//W3C//DTD SVG 1.1//EN"
 "http://www.w3.org/Graphics/SVG/1.1/DTD/svg11.dtd">
<!-- Generated by graphviz version 2.43.0 (0)
 -->
<!-- Title: %3 Pages: 1 -->
<svg width="638pt" height="480pt"
 viewBox="0.00 0.00 638.00 480.00" xmlns="http://www.w3.org/2000/svg" xmlns:xlink="http://www.w3.org/1999/xlink">
<g id="graph0" class="graph" transform="scale(1 1) rotate(0) translate(4 476)">
<title>%3</title>
<polygon fill="white" stroke="transparent" points="-4,4 -4,-476 634,-476 634,4 -4,4"/>
<!-- A -->
<g id="node1" class="node">
<title>A</title>
<image xlink:href="icon_router.png" width="54px" height="36px" preserveAspectRatio="xMinYMin meet" x="576" y="-324"/>
<text text-anchor="middle" x="603" y="-302.3" font-family="Times,serif" font-size="14.00">A</text>
</g>
<!-- B -->
<g id="node2" class="node">
<title>B</title>
<image xlink:href="icon_router.png" width="54px" height="36px" preserveAspectRatio="xMinYMin meet" x="360" y="-468"/>
<text text-anchor="middle" x="387" y="-446.3" font-family="Times,serif" font-size="14.00">B</text>
</g>
<!-- B&#45;&#45;A -->
<g id="edge1" class="edge">
<title>B&#45;&#45;A</title>
<path fill="none" stroke="black" d="M414.36,-431.76C455.91,-404.06 534.45,-351.7 575.87,-324.09"/>
<text text-anchor="middle" x="488.61" y="-383.93" font-family="Times,serif" font-size="20.00">1</text>
</g>
<!-- C -->
<g id="node3" class="node">
<title>C</title>
<image xlink:href="icon_router.png" width="54px" height="36px" preserveAspectRatio="xMinYMin meet" x="360" y="-180"/>
<text text-anchor="middle" x="387" y="-158.3" font-family="Times,serif" font-size="14.00">C</text>
</g>
<!-- B&#45;&#45;C -->
<g id="edge2" class="edge">
<title>B&#45;&#45;C</title>
<path fill="none" stroke="black" d="M387,-431.98C387,-380.26 387,-231.72 387,-180.01"/>
<text text-anchor="middle" x="380.5" y="-312" font-family="Times,serif" font-size="20.00">2</text>
</g>
<!-- D -->
<g id="node4" class="node">
<title>D</title>
<image xlink:href="icon_router.png" width="54px" height="36px" preserveAspectRatio="xMinYMin meet" x="144" y="-180"/>
<text text-anchor="middle" x="171" y="-158.3" font-family="Times,serif" font-size="14.00">D</text>
</g>
<!-- B&#45;&#45;D -->
<g id="edge3" class="edge">
<title>B&#45;&#45;D</title>
<path fill="none" stroke="black" d="M373.49,-431.98C334.7,-380.26 223.29,-231.72 184.51,-180.01"/>
<text text-anchor="middle" x="272.5" y="-312" font-family="Times,serif" font-size="20.00">9</text>
</g>
<!-- G -->
<g id="node7" class="node">
<title>G</title>
<image xlink:href="icon_router.png" width="54px" height="36px" preserveAspectRatio="xMinYMin meet" x="72" y="-396"/>
<text text-anchor="middle" x="99" y="-374.3" font-family="Times,serif" font-size="14.00">G</text>
</g>
<!-- B&#45;&#45;G -->
<g id="edge4" class="edge">
<title>B&#45;&#45;G</title>
<path fill="none" stroke="black" d="M359.91,-443.23C305.02,-429.5 181.24,-398.56 126.23,-384.81"/>
<text text-anchor="middle" x="236.57" y="-420.02" font-family="Times,serif" font-size="20.00">4</text>
</g>
<!-- H -->
<g id="node8" class="node">
<title>H</title>
<image xlink:href="icon_router.png" width="54px" height="36px" preserveAspectRatio="xMinYMin meet" x="144" y="-468"/>
<text text-anchor="middle" x="171" y="-446.3" font-family="Times,serif" font-size="14.00">H</text>
</g>
<!-- B&#45;&#45;H -->
<g id="edge5" class="edge">
<title>B&#45;&#45;H</title>
<path fill="none" stroke="black" d="M359.64,-450C318.09,-450 239.55,-450 198.13,-450"/>
<text text-anchor="middle" x="272.39" y="-456" font-family="Times,serif" font-size="20.00">2</text>
</g>
<!-- C&#45;&#45;A -->
<g id="edge13" class="edge">
<title>C&#45;&#45;A</title>
<path fill="none" stroke="black" d="M414.36,-180.24C455.91,-207.94 534.45,-260.3 575.87,-287.91"/>
<text text-anchor="middle" x="488.61" y="-240.07" font-family="Times,serif" font-size="20.00">4</text>
</g>
<!-- C&#45;&#45;D -->
<g id="edge14" class="edge">
<title>C&#45;&#45;D</title>
<path fill="none" stroke="black" d="M359.64,-162C318.09,-162 239.55,-162 198.13,-162"/>
<text text-anchor="middle" x="272.39" y="-168" font-family="Times,serif" font-size="20.00">1</text>
</g>
<!-- E -->
<g id="node5" class="node">
<title>E</title>
<image xlink:href="icon_router.png" width="54px" height="36px" preserveAspectRatio="xMinYMin meet" x="144" y="-36"/>
<text text-anchor="middle" x="171" y="-14.3" font-family="Times,serif" font-size="14.00">E</text>
</g>
<!-- E&#45;&#45;C -->
<g id="edge11" class="edge">
<title>E&#45;&#45;C</title>
<path fill="none" stroke="black" d="M198.36,-36.24C239.91,-63.94 318.45,-116.3 359.87,-143.91"/>
<text text-anchor="middle" x="272.61" y="-96.07" font-family="Times,serif" font-size="20.00">3</text>
</g>
<!-- E&#45;&#45;D -->
<g id="edge12" class="edge">
<title>E&#45;&#45;D</title>
<path fill="none" stroke="black" d="M171,-36.24C171,-63.94 171,-116.3 171,-143.91"/>
<text text-anchor="middle" x="164.5" y="-96.07" font-family="Times,serif" font-size="20.00">1</text>
</g>
<!-- F -->
<g id="node6" class="node">
<title>F</title>
<image xlink:href="icon_router.png" width="54px" height="36px" preserveAspectRatio="xMinYMin meet" x="0" y="-108"/>
<text text-anchor="middle" x="27" y="-86.3" font-family="Times,serif" font-size="14.00">F</text>
</g>
<!-- F&#45;&#45;D -->
<g id="edge9" class="edge">
<title>F&#45;&#45;D</title>
<path fill="none" stroke="black" d="M54.09,-103.54C79.67,-116.33 117.84,-135.42 143.55,-148.27"/>
<text text-anchor="middle" x="92.32" y="-131.91" font-family="Times,serif" font-size="20.00">3</text>
</g>
<!-- F&#45;&#45;E -->
<g id="edge10" class="edge">
<title>F&#45;&#45;E</title>
<path fill="none" stroke="black" d="M54.09,-76.46C79.67,-63.67 117.84,-44.58 143.55,-31.73"/>
<text text-anchor="middle" x="92.32" y="-60.09" font-family="Times,serif" font-size="20.00">1</text>
</g>
<!-- G&#45;&#45;D -->
<g id="edge7" class="edge">
<title>G&#45;&#45;D</title>
<path fill="none" stroke="black" d="M105.01,-359.96C118.57,-319.3 151.37,-220.9 164.95,-180.15"/>
<text text-anchor="middle" x="128.48" y="-276.05" font-family="Times,serif" font-size="20.00">1</text>
</g>
<!-- G&#45;&#45;F -->
<g id="edge8" class="edge">
<title>G&#45;&#45;F</title>
<path fill="none" stroke="black" d="M94.5,-359.98C81.57,-308.26 44.43,-159.72 31.5,-108.01"/>
<text text-anchor="middle" x="56.5" y="-240" font-family="Times,serif" font-size="20.00">6</text>
</g>
<!-- H&#45;&#45;G -->
<g id="edge6" class="edge">
<title>H&#45;&#45;G</title>
<path fill="none" stroke="black" d="M152.83,-431.83C142,-421 128.29,-407.29 117.41,-396.41"/>
<text text-anchor="middle" x="122.12" y="-420.12" font-family="Times,serif" font-size="20.00">14</text>
</g>
</g>
</svg>
